# xmcd
# 
# Track frame offsets:
#     150
#     13245
#     27275
#     46100
#     58489
#     77385
#     93007
#     110737
#     127860
#     145812
# 
# Disc length: 2168
# 
# Revision: 0
# Processed by: cddbd v1.5.2PL0 Copyright (c) Steve Scherf et al.
# Submitted via: BonkEnc v1.0
# 
DISCID=7a08760a
DTITLE=Jo Dee Messina - Jo Dee Messina
DYEAR=1996
DGENRE=Country
TTITLE0=You're Not in Kansas Anymore
TTITLE1=On A wing and A Prayer
TTITLE2=He'd Never Seen Julie Cry
TTITLE3=Do You Wanna Make Something Of It
TTITLE4=Let It Go
TTITLE5=Head's Carolina, Tails California
TTITLE6=Walk To The Light
TTITLE7=I Didn't Have To Leave You
TTITLE8=Every Little Girl's Dream
TTITLE9=Another Shoulder At The Wheel
EXTD=
EXTT0=
EXTT1=
EXTT2=
EXTT3=
EXTT4=
EXTT5=
EXTT6=
EXTT7=
EXTT8=
EXTT9=
PLAYORDER=
